<svg width="231" height="40" viewBox="0 0 231 40" fill="none" xmlns="http://www.w3.org/2000/svg">
<path d="M217.948 22.1797C218.074 25.8281 220.653 27.5894 223.169 27.5894C225.685 27.5894 227.069 26.4571 227.793 24.7902H230.749C229.963 27.7152 227.29 30.1055 223.169 30.1055C217.823 30.1055 214.866 26.2684 214.866 21.2676C214.866 15.9209 218.452 12.4927 223.075 12.4927C228.233 12.4927 231.347 16.833 230.969 22.1797H217.948ZM217.98 19.7265H227.95C227.887 17.3362 226.094 14.9459 223.075 14.9459C220.527 14.9459 218.232 16.3298 217.98 19.7265Z" fill="#1C2024"/>
<path d="M210.148 6.89431H213.01V29.6966H210.148V27.149C209.11 28.9417 207.317 30.1054 204.612 30.1054C200.744 30.1054 197.379 26.8974 197.379 21.2991C197.379 15.7322 200.744 12.4927 204.612 12.4927C207.317 12.4927 209.11 13.6564 210.148 15.4491V6.89431ZM205.336 14.9459C202.411 14.9459 200.492 17.2733 200.492 21.2991C200.492 25.3248 202.411 27.6522 205.336 27.6522C207.883 27.6522 210.274 25.7651 210.274 21.2991C210.274 16.833 207.883 14.9459 205.336 14.9459Z" fill="#1C2024"/>
<path d="M196.367 21.2991C196.367 27.4321 192.184 30.1055 188.253 30.1055C184.321 30.1055 180.138 27.4321 180.138 21.2991C180.138 15.1661 184.321 12.4927 188.253 12.4927C192.184 12.4927 196.367 15.1661 196.367 21.2991ZM188.253 27.5894C190.832 27.5894 193.317 25.6394 193.317 21.2991C193.317 16.8015 190.832 15.0088 188.253 15.0088C185.674 15.0088 183.189 16.6757 183.189 21.2991C183.189 25.7966 185.674 27.5894 188.253 27.5894Z" fill="#1C2024"/>
<path d="M179.163 18.437H176.269C175.86 16.4241 174.099 15.0088 171.897 15.0088C169.35 15.0088 167.022 16.9902 167.022 21.2362C167.022 25.545 169.381 27.5894 171.897 27.5894C174.288 27.5894 175.986 25.9853 176.395 24.1926H179.351C178.785 27.3692 175.734 30.1055 171.803 30.1055C166.959 30.1055 163.909 26.4257 163.909 21.2676C163.909 16.2354 167.085 12.4927 172.086 12.4927C176.175 12.4927 178.785 15.5749 179.163 18.437Z" fill="#1C2024"/>
<path d="M151.187 8.5298H154.049V12.7757H157.257V15.0717H154.049V25.1047C154.049 26.866 154.174 27.3063 155.81 27.3063H157.257V29.6966H155.181C151.941 29.6966 151.187 28.9732 151.187 25.4507V15.0717H148.513V12.7757H151.187V8.5298Z" fill="#1C2024"/>
<path d="M136.542 15.3233C137.517 13.7193 139.152 12.4927 142.015 12.4927C146.103 12.4927 147.581 15.1346 147.581 19.0031V29.6966H144.719V19.8523C144.719 17.2419 144.279 14.9774 141.008 14.9774C138.24 14.9774 136.542 16.8959 136.542 20.5128V29.6966H133.68V12.7758H136.542V15.3233Z" fill="#1C2024"/>
<path d="M118.818 22.1797C118.943 25.8281 121.522 27.5894 124.039 27.5894C126.555 27.5894 127.938 26.4571 128.662 24.7902H131.618C130.832 27.7152 128.159 30.1055 124.039 30.1055C118.692 30.1055 115.735 26.2684 115.735 21.2676C115.735 15.9209 119.321 12.4927 123.944 12.4927C129.102 12.4927 132.216 16.833 131.838 22.1797H118.818ZM118.849 19.7265H128.819C128.756 17.3362 126.963 14.9459 123.944 14.9459C121.397 14.9459 119.101 16.3298 118.849 19.7265Z" fill="#1C2024"/>
<path d="M92.9671 29.6966H90.105V12.7758H92.9671V15.3233C93.9421 13.7193 95.5146 12.4927 98.0622 12.4927C100.641 12.4927 102.182 13.6249 102.937 15.4806C104.29 13.4048 106.271 12.4927 108.63 12.4927C112.561 12.4927 114.102 15.1346 114.102 19.0031V29.6966H111.24V19.8523C111.24 17.2419 110.737 14.9774 107.623 14.9774C105.17 14.9774 103.535 16.8959 103.535 20.5128V29.6966H100.673V19.8523C100.673 17.2419 100.169 14.9774 97.0557 14.9774C94.6025 14.9774 92.9671 16.8959 92.9671 20.5128V29.6966Z" fill="#1C2024"/>
<path d="M84.218 12.7758H87.0801V27.4321C87.0801 30.8918 86.4511 32.3071 85.4761 33.3764C84.2495 34.7917 82.1423 35.6095 79.6261 35.6095C75.7891 35.6095 73.2101 33.8482 72.6754 30.42H75.7262C76.1036 31.9297 77.0157 33.0934 79.6576 33.0934C81.1987 33.0934 82.3624 32.653 83.1173 31.8353C83.7463 31.1748 84.218 30.3885 84.218 28.0926V26.4886C83.1802 28.2813 81.5447 29.4135 78.8399 29.4135C75.0971 29.4135 71.6689 26.3942 71.6689 20.9531C71.6689 15.5435 75.0971 12.4927 78.8399 12.4927C81.5447 12.4927 83.1802 13.6564 84.218 15.4491V12.7758ZM79.5632 14.9459C76.7641 14.9459 74.7826 17.116 74.7826 20.9531C74.7826 24.8216 76.7641 26.9918 79.5632 26.9918C82.1108 26.9918 84.3439 25.262 84.3439 20.9531C84.3439 16.6757 82.1108 14.9459 79.5632 14.9459Z" fill="#1C2024"/>
<path d="M66.9241 27.2754C65.9492 28.8794 64.408 30.106 61.6089 30.106C57.6774 30.106 56.1992 27.4641 56.1992 23.5956V12.7763H59.0613V22.7464C59.0613 25.3569 59.5016 27.6214 62.6153 27.6214C65.3201 27.6214 66.9241 25.7028 66.9241 22.0859V12.7763H69.7862V29.6972H66.9241V27.2754Z" fill="#1C2024"/>
<path d="M39.3699 25.2303C39.3699 21.236 43.8674 20.0723 50.8182 19.286V18.8771C50.8182 15.7949 49.0884 14.757 46.9811 14.757C44.6223 14.757 43.2384 16.0465 43.1126 18.1223H40.1562C40.4392 14.4739 43.6473 12.4296 46.9497 12.4296C51.6045 12.4296 53.7117 14.6627 53.6803 19.4118L53.6488 23.3118C53.6174 26.1424 53.7746 28.0924 54.0891 29.6964H51.1956C51.1012 29.0674 51.0069 28.3755 50.9754 27.369C49.9375 29.0988 48.1763 30.1053 45.1884 30.1053C42.0118 30.1053 39.3699 28.344 39.3699 25.2303ZM51.0383 21.5505C45.8489 22.0852 42.5465 22.84 42.5465 25.1674C42.5465 26.7714 43.7731 27.8408 45.8174 27.8408C48.4908 27.8408 51.0383 26.6142 51.0383 22.6199V21.5505Z" fill="#1C2024"/>
<path d="M5.77236 31.3988C5.26067 31.3988 4.82972 31.3096 4.47952 31.1322C4.13025 30.9547 3.86548 30.6843 3.68803 30.3276C3.51058 29.9708 3.41951 29.5342 3.41951 29.0216V23.7356C3.41951 23.084 3.29089 22.6099 3.03645 22.3142C2.78013 22.0193 2.32571 21.8635 1.67412 21.8485C1.47132 21.8485 1.30889 21.7715 1.1859 21.6147C1.06103 21.4598 1 21.2804 1 21.0805C1 20.8636 1.06103 20.6842 1.1859 20.5444C1.30983 20.4045 1.47414 20.3275 1.67412 20.3125C2.32571 20.2965 2.78013 20.1416 3.03645 19.8468C3.29276 19.552 3.41951 19.0853 3.41951 18.4488V13.1628C3.41951 12.3864 3.62231 11.7958 4.0251 11.393C4.42788 10.9902 5.01093 10.7874 5.77236 10.7874H11.9859C12.2197 10.7874 12.4122 10.8579 12.568 10.9968C12.7229 11.1367 12.8018 11.316 12.8018 11.531C12.8018 11.7338 12.7361 11.9075 12.6046 12.0559C12.4732 12.2042 12.2986 12.2784 12.0798 12.2784H6.31035C5.98268 12.2784 5.73481 12.3638 5.56487 12.5347C5.39399 12.7056 5.30855 12.9694 5.30855 13.3281V18.6384C5.30855 19.1041 5.21467 19.5266 5.02877 19.9069C4.84287 20.288 4.59406 20.5866 4.28329 20.8054C3.97252 21.0222 3.60917 21.1312 3.18949 21.1312V21.0373C3.60917 21.0373 3.97252 21.1462 4.28329 21.3631C4.59406 21.5799 4.84287 21.8795 5.02877 22.2616C5.21467 22.6418 5.30855 23.0643 5.30855 23.53V28.8638C5.30855 29.2225 5.39399 29.4854 5.56487 29.6572C5.73575 29.83 5.98455 29.9135 6.31035 29.9135H12.0798C12.2967 29.9135 12.4713 29.9877 12.6046 30.1351C12.738 30.2834 12.8018 30.4581 12.8018 30.6599C12.8018 30.8618 12.7248 31.0345 12.568 31.1829C12.4122 31.3312 12.2188 31.4045 11.9859 31.4045H5.77236V31.3998V31.3988Z" fill="#1C2024" stroke="#1C2024" stroke-width="0.430274" stroke-miterlimit="10"/>
<path d="M21.0049 31.3992C20.7711 31.3992 20.5786 31.3251 20.4227 31.1777C20.2669 31.0293 20.189 30.8547 20.189 30.6547C20.189 30.4547 20.2547 30.2782 20.3861 30.1299C20.5176 29.9815 20.6922 29.9083 20.911 29.9083H26.6804C27.0081 29.9083 27.256 29.8247 27.4259 29.652C27.5968 29.4811 27.6822 29.2173 27.6822 28.8586V23.5248C27.6822 23.0591 27.7761 22.6366 27.962 22.2563C28.1479 21.8752 28.3967 21.5766 28.7075 21.3578C29.0183 21.1409 29.3816 21.032 29.8013 21.032V21.1259C29.3816 21.1259 29.0183 21.017 28.7075 20.8001C28.3967 20.5832 28.1479 20.2837 27.962 19.9016C27.7761 19.5214 27.6822 19.0989 27.6822 18.6332V13.3228C27.6822 12.9661 27.5968 12.7022 27.4259 12.5295C27.255 12.3586 27.0062 12.2732 26.6804 12.2732H20.911C20.6941 12.2732 20.5195 12.199 20.3861 12.0506C20.2547 11.9042 20.189 11.7286 20.189 11.5258C20.189 11.3089 20.266 11.1315 20.4227 10.9916C20.5777 10.8517 20.7711 10.7822 21.0049 10.7822H27.2184C27.9799 10.7822 28.561 10.985 28.9657 11.3878C29.3703 11.7906 29.5713 12.3811 29.5713 13.1576V18.4435C29.5713 19.0801 29.6999 19.5477 29.9543 19.8415C30.2107 20.1363 30.6651 20.2922 31.3167 20.3072C31.5195 20.3222 31.6819 20.3992 31.8049 20.5391C31.9298 20.679 31.9908 20.8583 31.9908 21.0752C31.9908 21.278 31.9298 21.4555 31.8049 21.6095C31.6819 21.7644 31.5166 21.8432 31.3167 21.8432C30.6651 21.8583 30.2116 22.0141 29.9543 22.3089C29.698 22.6037 29.5713 23.0769 29.5713 23.7304V29.0163C29.5713 29.5299 29.4821 29.9637 29.3027 30.3223C29.1234 30.681 28.8605 30.9476 28.5113 31.127C28.1611 31.3044 27.7301 31.3936 27.2184 31.3936H21.0049V31.3983V31.3992Z" fill="#1C2024" stroke="#1C2024" stroke-width="0.430274" stroke-miterlimit="10"/>
<path d="M22.6019 23.1024C23.7332 23.1024 24.6505 22.1851 24.6505 21.0538C24.6505 19.9224 23.7332 19.0051 22.6019 19.0051C21.4705 19.0051 20.5532 19.9224 20.5532 21.0538C20.5532 22.1851 21.4705 23.1024 22.6019 23.1024Z" fill="#1C2024" stroke="#1C2024" stroke-width="0.430274" stroke-miterlimit="10"/>
<path d="M11.1268 23.1024C12.2581 23.1024 13.1754 22.1851 13.1754 21.0538C13.1754 19.9224 12.2581 19.0051 11.1268 19.0051C9.99542 19.0051 9.07812 19.9224 9.07812 21.0538C9.07812 22.1851 9.99542 23.1024 11.1268 23.1024Z" fill="#1C2024" stroke="#1C2024" stroke-width="0.430274" stroke-miterlimit="10"/>
<path d="M15.7976 4.85989L15.6408 9.04639C15.6408 9.28111 15.4192 9.39847 14.9761 9.39847C14.5329 9.39847 14.3113 9.28111 14.3113 9.04639C14.2719 8.00329 14.24 7.19397 14.2137 6.62031C14.2005 6.0335 14.1874 5.6157 14.1743 5.36783C14.1611 5.11996 14.1545 4.96974 14.1545 4.9181V4.84018C14.1545 4.54067 14.4287 4.39045 14.9761 4.39045C15.5234 4.39045 15.7976 4.54724 15.7976 4.85989ZM19.1231 4.85989L18.9663 9.04639C18.9663 9.28111 18.7448 9.39847 18.3016 9.39847C17.8585 9.39847 17.6369 9.28111 17.6369 9.04639C17.5974 8.00329 17.5655 7.19397 17.5392 6.62031C17.5261 6.0335 17.5129 5.6157 17.4998 5.36783C17.4867 5.11996 17.4801 4.96974 17.4801 4.9181V4.84018C17.4801 4.54067 17.7542 4.39045 18.3016 4.39045C18.849 4.39045 19.1231 4.54724 19.1231 4.85989Z" fill="#1C2024" stroke="#1C2024" stroke-width="0.430274" stroke-miterlimit="10"/>
</svg>
